<svg xmlns="http://www.w3.org/2000/svg" viewBox="0 0 205.17 46.35"><defs><style>.cls-1{fill:#fff;}</style></defs><title>txt1</title><g id="Layer_2" data-name="Layer 2"><g id="Layer_1-2" data-name="Layer 1"><path class="cls-1" d="M53,17.23V.14H63.93V2.47H55.6v5h7.1V9.77H55.6v5.14h8.33v2.32Z"/><path class="cls-1" d="M76.12,17.23,72.4,10.68l-3.7,6.55h-3L71,8.47,66.06.14h3L72.4,6.26,75.78.14h3l-5,8.33,5.31,8.76Z"/><path class="cls-1" d="M87.11,17.38a6.19,6.19,0,0,1-4.49-1.83C80.94,13.87,81,12,81,8.69s0-5.19,1.66-6.87A6.22,6.22,0,0,1,87.11,0,5.88,5.88,0,0,1,93.2,5.26H90.56a3.53,3.53,0,0,0-6-1.9c-.84.91-1,1.9-1,5.33s.19,4.42,1,5.33a3.4,3.4,0,0,0,2.52,1,3.46,3.46,0,0,0,3.48-2.93H93.2A5.89,5.89,0,0,1,87.11,17.38Z"/><path class="cls-1" d="M96.9,17.23V.14h2.59V17.23Z"/><path class="cls-1" d="M110,2.47V17.23h-2.59V2.47h-4.71V.14h12V2.47Z"/><path class="cls-1" d="M117.88,17.23V.14h2.59V17.23Z"/><path class="cls-1" d="M135.66,17.23l-7.9-12v12h-2.59V.14h2.38l7.89,12V.14H138V17.23Z"/><path class="cls-1" d="M153,15.43a6.53,6.53,0,0,1-9.19.12c-1.68-1.68-1.66-3.57-1.66-6.86s0-5.19,1.66-6.87A6.14,6.14,0,0,1,148.26,0a6,6,0,0,1,6.22,5.3h-2.62a3.63,3.63,0,0,0-6.12-1.92c-.84.92-1,1.88-1,5.31s.19,4.42,1,5.33a3.4,3.4,0,0,0,2.52,1,3.6,3.6,0,0,0,2.78-1.2,3.85,3.85,0,0,0,.87-2.69v-1h-3.65V8h6.24v2.62C154.5,12.82,154.09,14.23,153,15.43Z"/><path class="cls-1" d="M11.86,46.21l-1.18-3.44H3.94L2.76,46.21H0L6.26,29.12H8.35l6.27,17.09ZM7.37,33,4.7,40.57H10Z"/><path class="cls-1" d="M27.7,44.6a6.1,6.1,0,0,1-4.42,1.61h-6V29.12h6a6.1,6.1,0,0,1,4.42,1.6c1.84,1.85,1.73,4.35,1.73,6.82S29.54,42.75,27.7,44.6Zm-1.78-12A3.67,3.67,0,0,0,23,31.44H19.87V43.88H23a3.7,3.7,0,0,0,2.9-1.15c.89-1,.91-2.84.91-5.19S26.81,33.58,25.92,32.6Z"/><path class="cls-1" d="M38.78,46.21h-2L31.15,29.12h2.69l3.94,12.43,3.93-12.43h2.74Z"/><path class="cls-1" d="M47,46.21V29.12H58v2.32H49.63v5h7.11v2.3H49.63v5.14H58v2.33Z"/><path class="cls-1" d="M72.24,46.21l-7.9-12v12H61.75V29.12h2.38l7.89,12v-12h2.6V46.21Z"/><path class="cls-1" d="M85.1,31.44V46.21H82.51V31.44h-4.7V29.12h12v2.32Z"/><path class="cls-1" d="M98.86,46.35a5.8,5.8,0,0,1-6.13-5.9V29.12h2.6V40.33a3.54,3.54,0,1,0,7.08,0V29.12H105V40.45A5.81,5.81,0,0,1,98.86,46.35Z"/><path class="cls-1" d="M118.87,46.21l-3.6-7.2H112v7.2h-2.59V29.12h6.62c3.24,0,5.31,2.09,5.31,5A4.49,4.49,0,0,1,118,38.65l3.94,7.56Zm-3-14.77H112V36.8h3.84a2.69,2.69,0,1,0,0-5.36Z"/><path class="cls-1" d="M125.4,46.21V29.12h10.92v2.32H128v5h7.11v2.3H128v5.14h8.33v2.33Z"/><path class="cls-1" d="M144.65,46.35a7.72,7.72,0,0,1-6.05-2.26l1.73-1.7A5.6,5.6,0,0,0,144.69,44c2.24,0,3.53-1,3.53-2.61a2.29,2.29,0,0,0-.67-1.78,2.92,2.92,0,0,0-1.87-.72l-2-.29a5.83,5.83,0,0,1-3.24-1.37A4.24,4.24,0,0,1,139.17,34c0-3,2.16-5,5.72-5a7.11,7.11,0,0,1,5.3,2l-1.66,1.63a5,5,0,0,0-3.72-1.32c-2,0-3.12,1.15-3.12,2.66a2.06,2.06,0,0,0,.65,1.59,3.85,3.85,0,0,0,1.92.79l2,.29a5.65,5.65,0,0,1,3.19,1.27,4.49,4.49,0,0,1,1.39,3.5C150.79,44.48,148.22,46.35,144.65,46.35Z"/><path class="cls-1" d="M164.81,46.35a7.72,7.72,0,0,1-6.05-2.26l1.73-1.7A5.6,5.6,0,0,0,164.85,44c2.24,0,3.53-1,3.53-2.61a2.29,2.29,0,0,0-.67-1.78,2.92,2.92,0,0,0-1.87-.72l-2-.29a5.83,5.83,0,0,1-3.24-1.37A4.24,4.24,0,0,1,159.33,34c0-3,2.16-5,5.72-5a7.11,7.11,0,0,1,5.3,2l-1.66,1.63A5,5,0,0,0,165,31.23c-2,0-3.12,1.15-3.12,2.66a2.06,2.06,0,0,0,.65,1.59,3.85,3.85,0,0,0,1.92.79l2,.29a5.65,5.65,0,0,1,3.19,1.27,4.49,4.49,0,0,1,1.39,3.5C171,44.48,168.38,46.35,164.81,46.35Z"/><path class="cls-1" d="M174.67,46.21V29.12h10.92v2.32h-8.33v5h7.11v2.3h-7.11v5.14h8.33v2.33Z"/><path class="cls-1" d="M188.9,46.21V43.28h2.93v2.93Z"/><path class="cls-1" d="M195.57,46.21V43.28h2.93v2.93Z"/><path class="cls-1" d="M202.25,46.21V43.28h2.92v2.93Z"/></g></g></svg>