<svg xmlns="http://www.w3.org/2000/svg" viewBox="0 0 205.39 46.35"><defs><style>.cls-1{fill:#fff;}</style></defs><title>txt2</title><g id="Layer_2" data-name="Layer 2"><g id="Layer_1-2" data-name="Layer 1"><path class="cls-1" d="M70.16,17.38a7.74,7.74,0,0,1-6-2.26l1.73-1.7a5.64,5.64,0,0,0,4.37,1.63c2.23,0,3.53-1,3.53-2.62a2.3,2.3,0,0,0-.67-1.77,3,3,0,0,0-1.88-.72l-2-.29a5.8,5.8,0,0,1-3.24-1.37A4.24,4.24,0,0,1,64.69,5c0-3,2.16-5,5.71-5a7.16,7.16,0,0,1,5.31,1.94L74.05,3.58a5,5,0,0,0-3.72-1.32c-2,0-3.12,1.15-3.12,2.66a2,2,0,0,0,.65,1.58,3.77,3.77,0,0,0,1.92.8l1.94.28a5.68,5.68,0,0,1,3.2,1.28,4.48,4.48,0,0,1,1.39,3.5C76.31,15.5,73.74,17.38,70.16,17.38Z"/><path class="cls-1" d="M85.88,17.38a5.8,5.8,0,0,1-6.12-5.91V.14h2.59V11.35a3.54,3.54,0,1,0,7.08,0V.14H92V11.47A5.82,5.82,0,0,1,85.88,17.38Z"/><path class="cls-1" d="M103,10.51H99.06v6.72H96.47V.14H103c3.33,0,5.47,2.21,5.47,5.19S106.28,10.51,103,10.51Zm-.15-8H99.06V8.16h3.74a2.73,2.73,0,0,0,3-2.83A2.75,2.75,0,0,0,102.8,2.47Z"/><path class="cls-1" d="M111.8,17.23V.14h10.92V2.47h-8.33v5h7.11V9.77h-7.11v5.14h8.33v2.32Z"/><path class="cls-1" d="M136,17.23,132.34,10H129.1v7.2h-2.59V.14h6.63c3.24,0,5.3,2.09,5.3,5A4.49,4.49,0,0,1,135,9.67L139,17.23ZM133,2.47H129.1V7.82H133a2.6,2.6,0,0,0,2.9-2.66A2.62,2.62,0,0,0,133,2.47Z"/><path class="cls-1" d="M0,46.21V29.12H10.92v2.32H2.59v5H9.7v2.3H2.59v5.14h8.33v2.33Z"/><path class="cls-1" d="M23.11,46.21l-3.72-6.56L15.7,46.21h-3L18,37.45l-4.94-8.33h3l3.36,6.12,3.39-6.12h3l-4.94,8.33,5.3,8.76Z"/><path class="cls-1" d="M35.3,39.49H31.42v6.72h-2.6V29.12H35.3c3.34,0,5.48,2.21,5.48,5.18S38.64,39.49,35.3,39.49Zm-.14-8H31.42v5.69h3.74a2.85,2.85,0,1,0,0-5.69Z"/><path class="cls-1" d="M44.16,46.21V29.12H55.08v2.32H46.75v5h7.11v2.3H46.75v5.14h8.33v2.33Z"/><path class="cls-1" d="M68.3,46.21,64.7,39H61.46v7.2H58.87V29.12H65.5c3.24,0,5.3,2.09,5.3,5a4.49,4.49,0,0,1-3.41,4.54l3.94,7.56Zm-3-14.77H61.46V36.8H65.3a2.69,2.69,0,1,0,0-5.36Z"/><path class="cls-1" d="M74.83,46.21V29.12h2.59V46.21Z"/><path class="cls-1" d="M82.13,46.21V29.12H93.05v2.32H84.72v5h7.1v2.3h-7.1v5.14h8.33v2.33Z"/><path class="cls-1" d="M107.33,46.21l-7.9-12v12H96.84V29.12h2.37l7.9,12v-12h2.59V46.21Z"/><path class="cls-1" d="M119.93,46.35a6.2,6.2,0,0,1-4.49-1.82c-1.68-1.68-1.66-3.58-1.66-6.87s0-5.18,1.66-6.86A6.17,6.17,0,0,1,119.93,29,5.88,5.88,0,0,1,126,34.23h-2.64a3.43,3.43,0,0,0-3.45-2.93,3.39,3.39,0,0,0-2.52,1c-.84.92-1,1.9-1,5.33s.2,4.42,1,5.33a3.39,3.39,0,0,0,2.52,1,3.46,3.46,0,0,0,3.48-2.93H126A5.89,5.89,0,0,1,119.93,46.35Z"/><path class="cls-1" d="M129.72,46.21V29.12h10.92v2.32h-8.33v5h7.1v2.3h-7.1v5.14h8.33v2.33Z"/><path class="cls-1" d="M149,46.35a7.72,7.72,0,0,1-6-2.26l1.72-1.7A5.64,5.64,0,0,0,149,44c2.24,0,3.53-1,3.53-2.61a2.29,2.29,0,0,0-.67-1.78,2.94,2.94,0,0,0-1.87-.72l-2-.29a5.8,5.8,0,0,1-3.24-1.37A4.24,4.24,0,0,1,143.49,34c0-3,2.16-5,5.72-5a7.12,7.12,0,0,1,5.3,2l-1.66,1.63a5,5,0,0,0-3.72-1.32c-2,0-3.12,1.15-3.12,2.66a2.06,2.06,0,0,0,.65,1.59,3.85,3.85,0,0,0,1.92.79l1.95.29a5.65,5.65,0,0,1,3.19,1.27,4.49,4.49,0,0,1,1.39,3.5C155.11,44.48,152.54,46.35,149,46.35Z"/><path class="cls-1" d="M170.37,31.44V46.21h-2.59V31.44h-4.7V29.12h12v2.32Z"/><path class="cls-1" d="M186.65,46.21l-1.18-3.44h-6.75l-1.17,3.44h-2.76l6.26-17.09h2.09l6.27,17.09ZM182.16,33l-2.67,7.59h5.26Z"/><path class="cls-1" d="M202.34,46.21l-4.8-8.43-2.88,3.46v5h-2.59V29.12h2.59v8.59l7-8.59h3.17l-5.54,6.69,6.12,10.4Z"/></g></g></svg>